<svg id="Layer_1" data-name="Layer 1" xmlns="http://www.w3.org/2000/svg" viewBox="0 0 1723.04 917.05"><defs><style>.cls-1{font-size:350px;font-family:FiraCode-Bold, Fira Code;font-weight:700;}.cls-1,.cls-3{fill:#00ce4a;}.cls-2,.cls-4{fill:#6c4fbb;}.cls-2{letter-spacing:0em;}</style></defs><title>devRadarLogo</title><text class="cls-1" transform="translate(0 299.38)">Dev<tspan class="cls-2" x="646.14" y="0">Radar</tspan></text><path class="cls-3" d="M966,477c-142.81,0-259,116.19-259,259S823.19,995,966,995s259-116.19,259-259S1108.81,477,966,477Zm131.53,118.93c-33.09-32.56-75.58-53.29-128.39-55.3V487.71c67.9,1.35,123.55,27.39,167,69.06ZM969.14,614.56c31.44,1.27,56.38,13.12,76.82,31.87l-76.82,76.81Zm-11.31,118.3H844.56C847.27,670,900,617.27,957.83,614.56Zm0,11.31V857.44C900,854.73,847.27,802,844.56,744.17Zm11.31,0h118.3C1084.73,802,1032,854.73,969.14,857.44ZM1054.5,639c-22.36-20.65-48.9-33.68-85.36-35V551.2a183.25,183.25,0,0,1,120.38,52.2Zm-96.67-35C895,606.71,836.71,665,834,732.86H781.07c1.41-99.33,82.46-180.38,176.76-181.79ZM834,744.17C836.71,807,895,865.29,957.83,868v47.64c-94.3-1.39-172.5-77.18-176.63-171.48ZM969.14,868c67.9-2.72,126.15-61,128.87-123.84h47.5c-4.06,89.27-82.07,167.29-176.37,171.34Zm-11.31-380.3V540.5c-100.58,1.41-185.92,86.75-187.33,192.36H717.71C720.5,595.81,825.81,490.5,957.83,487.71ZM717.71,744.17h52.92c4.14,100.58,86.62,180.66,187.2,182.05v58.07A244.59,244.59,0,0,1,717.71,744.17ZM969.14,984.29V926.08c99.33-4.07,182.87-87.61,186.94-181.91h58.22C1211.5,876.19,1106.19,981.5,969.14,984.29Z" transform="translate(-98.15 -77.95)"/><circle class="cls-4" cx="682.92" cy="481.47" r="17.6"/><circle class="cls-4" cx="932.14" cy="765.68" r="17.6"/><circle class="cls-4" cx="703.51" cy="751.08" r="17.6"/></svg>